<?xml version="1.0" standalone="no"?>
<!DOCTYPE svg PUBLIC "-//W3C//DTD SVG 20010904//EN"
 "http://www.w3.org/TR/2001/REC-SVG-20010904/DTD/svg10.dtd">
<svg version="1.0" xmlns="http://www.w3.org/2000/svg"
 width="327.000000pt" height="138.000000pt" viewBox="0 0 327.000000 138.000000"
 preserveAspectRatio="xMidYMid meet">

<g transform="translate(0.000000,138.000000) scale(0.100000,-0.100000)"
fill="#000000" stroke="none">
<path d="M694 1246 c-38 -19 -86 -53 -107 -74 l-39 -39 28 -7 c42 -11 105 -51
147 -94 l37 -38 46 43 c41 38 108 77 169 98 18 6 15 11 -28 50 -46 42 -141 95
-170 95 -8 0 -45 -16 -83 -34z"/>
<path d="M1628 1160 c-48 -14 -96 -50 -120 -88 -34 -55 -32 -144 5 -200 33
-51 80 -76 192 -102 131 -30 165 -54 165 -113 0 -63 -86 -105 -179 -87 -65 12
-105 49 -137 128 -1 1 -26 -3 -57 -10 l-56 -13 19 -43 c30 -66 65 -106 122
-138 49 -27 61 -29 153 -29 83 0 107 4 140 22 75 40 115 105 115 187 0 117
-53 164 -241 211 -63 16 -113 35 -126 47 -43 40 -21 104 43 128 66 25 154 -7
181 -67 10 -21 18 -39 19 -41 4 -8 97 24 101 35 7 19 -46 108 -78 132 -62 46
-182 65 -261 41z"/>
<path d="M2060 815 l0 -345 60 0 60 0 0 135 0 135 102 0 c127 0 176 20 219 88
54 86 48 185 -18 261 -49 58 -101 71 -280 71 l-143 0 0 -345z m311 225 c25
-14 49 -62 49 -101 0 -22 -10 -41 -34 -65 -33 -33 -36 -34 -120 -34 l-86 0 0
105 0 105 86 0 c47 0 94 -5 105 -10z"/>
<path d="M2590 805 l0 -345 230 0 230 0 0 55 0 55 -170 0 -170 0 0 95 0 95
130 0 130 0 0 55 0 55 -130 0 -130 0 0 85 0 85 165 0 165 0 0 55 0 55 -225 0
-225 0 0 -345z"/>
<path d="M1030 1101 c0 -5 12 -34 26 -65 86 -189 -3 -442 -191 -539 -25 -13
-27 -17 -12 -22 32 -13 161 1 220 24 72 28 163 114 196 185 53 114 52 232 -2
338 -26 51 -39 65 -67 75 -41 14 -170 17 -170 4z"/>
<path d="M922 1064 c-28 -14 -69 -43 -92 -65 l-40 -39 24 -49 c38 -75 52 -168
38 -253 -7 -38 -21 -87 -31 -109 l-19 -39 49 27 c67 36 124 100 162 181 28 59
32 77 31 152 0 63 -6 100 -23 142 -31 79 -38 83 -99 52z"/>
<path d="M547 1056 c-55 -84 -62 -245 -15 -346 31 -67 92 -137 145 -167 l39
-22 -23 67 c-37 110 -26 246 27 339 l19 32 -48 44 c-45 43 -99 77 -119 77 -5
0 -17 -11 -25 -24z"/>
<path d="M745 877 c-40 -96 -41 -193 -2 -297 l20 -55 21 45 c31 67 30 248 -1
305 l-21 40 -17 -38z"/>
<path d="M337 279 c-22 -30 -10 -55 34 -72 27 -11 37 -20 33 -30 -9 -25 -33
-28 -54 -7 -13 13 -21 16 -26 8 -8 -12 30 -48 51 -48 7 0 23 8 35 18 33 27 21
69 -23 80 -34 9 -48 36 -23 45 9 4 22 0 30 -8 18 -19 26 -19 26 0 0 16 -30 35
-54 35 -8 0 -21 -9 -29 -21z"/>
<path d="M560 220 c0 -47 4 -80 10 -80 6 0 10 33 10 80 0 47 -4 80 -10 80 -6
0 -10 -33 -10 -80z"/>
<path d="M790 290 c0 -5 5 -10 10 -10 6 0 10 5 10 10 0 6 -4 10 -10 10 -5 0
-10 -4 -10 -10z"/>
<path d="M900 221 c0 -47 4 -81 10 -81 6 0 10 14 10 30 0 25 4 30 23 30 13 0
32 9 43 21 17 19 17 23 3 47 -11 21 -24 28 -52 30 l-37 3 0 -80z m65 29 c0
-18 -6 -26 -22 -28 -20 -3 -23 1 -23 28 0 27 3 31 23 28 16 -2 22 -10 22 -28z"/>
<path d="M1300 220 c0 -44 3 -80 8 -80 4 0 16 -3 28 -6 29 -8 54 20 54 61 0
40 -24 68 -51 60 -15 -5 -19 -1 -19 19 0 14 -4 26 -10 26 -6 0 -10 -33 -10
-80z m65 -25 c0 -33 -3 -40 -20 -40 -15 0 -21 8 -23 28 -5 39 5 59 25 55 14
-2 18 -13 18 -43z"/>
<path d="M2070 220 l0 -80 48 2 c43 1 44 2 10 5 -34 4 -38 7 -38 34 0 24 4 29
25 29 14 0 25 5 25 10 0 6 -11 10 -25 10 -20 0 -25 5 -25 25 0 22 4 25 35 25
19 0 35 5 35 10 0 6 -20 10 -45 10 l-45 0 0 -80z"/>
<path d="M2180 220 c0 -47 4 -80 10 -80 6 0 10 33 10 80 0 47 -4 80 -10 80 -6
0 -10 -33 -10 -80z"/>
<path d="M2340 220 c0 -78 12 -105 24 -55 4 14 11 25 16 25 5 0 12 -11 16 -25
3 -14 12 -25 20 -25 11 0 10 7 -3 36 -14 28 -15 39 -5 55 7 10 8 19 2 19 -5 0
-14 -9 -20 -20 -18 -33 -30 -23 -30 25 0 25 -4 45 -10 45 -6 0 -10 -33 -10
-80z"/>
<path d="M2810 290 c0 -5 5 -10 10 -10 6 0 10 5 10 10 0 6 -4 10 -10 10 -5 0
-10 -4 -10 -10z"/>
<path d="M2860 220 c0 -44 4 -80 9 -80 5 0 11 10 13 22 4 31 26 34 34 4 3 -14
12 -26 20 -26 11 0 10 7 -3 36 -14 28 -15 39 -5 55 7 11 8 19 2 19 -5 0 -15
-9 -22 -20 -20 -31 -28 -24 -28 25 0 25 -4 45 -10 45 -6 0 -10 -33 -10 -80z"/>
<path d="M2450 271 c0 -11 -6 -22 -12 -24 -10 -4 -10 -6 0 -6 8 -1 12 -18 12
-50 0 -35 4 -51 16 -55 23 -9 34 -7 34 4 0 6 -7 10 -15 10 -19 0 -21 86 -2 93
10 4 10 6 0 6 -7 1 -13 10 -13 21 0 11 -4 20 -10 20 -5 0 -10 -9 -10 -19z"/>
<path d="M1026 238 c-9 -12 -16 -32 -16 -43 0 -29 28 -65 49 -65 22 0 47 27
36 38 -4 4 -10 1 -12 -5 -7 -18 -40 -16 -47 3 -9 24 -9 24 29 24 28 0 35 4 35
19 0 23 -25 51 -45 51 -8 0 -21 -10 -29 -22z m52 -15 c2 -8 -6 -13 -22 -13
-19 0 -24 4 -19 15 6 18 34 16 41 -2z"/>
<path d="M1153 253 c-21 -4 -23 -10 -23 -59 0 -66 18 -72 22 -6 2 34 7 47 18
47 11 0 16 -13 18 -47 2 -27 7 -48 12 -48 5 0 10 21 12 48 2 34 7 47 18 47 11
0 16 -13 18 -47 4 -63 22 -62 22 1 0 57 -17 79 -49 62 -13 -7 -22 -8 -26 -1
-3 5 -9 9 -13 9 -4 -1 -17 -4 -29 -6z"/>
<path d="M1431 251 c-7 -5 -10 -14 -6 -21 6 -9 9 -9 15 0 8 14 40 7 40 -8 0
-5 -15 -13 -32 -18 -22 -6 -34 -17 -36 -30 -4 -27 22 -49 45 -39 10 5 24 7 31
6 16 -3 16 91 0 107 -14 14 -37 15 -57 3z m49 -60 c0 -20 -13 -41 -25 -41 -23
0 -29 22 -10 37 22 15 35 17 35 4z"/>
<path d="M1633 253 c-22 -8 -14 -25 8 -18 13 5 25 2 30 -6 6 -10 -1 -16 -24
-24 -41 -13 -51 -59 -17 -70 12 -4 27 -2 32 3 6 6 17 8 24 5 11 -4 14 6 14 40
0 61 -26 87 -67 70z m40 -59 c10 -10 -12 -44 -28 -44 -18 0 -20 21 -3 38 13
13 22 15 31 6z"/>
<path d="M1766 251 c-4 -7 -14 -10 -22 -7 -11 4 -14 -7 -14 -49 0 -30 5 -55
10 -55 6 0 10 18 10 40 0 26 6 42 16 48 9 5 15 15 12 23 -3 10 -6 10 -12 0z"/>
<path d="M1811 251 c-7 -5 -10 -14 -6 -21 6 -9 9 -9 15 0 9 14 40 7 40 -9 0
-5 -13 -12 -30 -16 -17 -4 -32 -15 -36 -27 -8 -27 18 -54 43 -43 10 5 24 7 31
6 16 -3 16 91 0 107 -14 14 -37 15 -57 3z m49 -60 c0 -20 -13 -41 -25 -41 -23
0 -29 22 -10 37 22 15 35 17 35 4z"/>
<path d="M1933 253 c-21 -4 -23 -10 -23 -59 0 -66 18 -72 22 -7 2 36 7 49 21
51 14 3 17 -4 17 -47 0 -28 5 -51 10 -51 6 0 10 24 10 54 0 40 -4 55 -16 60
-9 3 -16 5 -17 5 -1 -1 -12 -4 -24 -6z"/>
<path d="M2246 244 c-24 -23 -21 -91 4 -104 24 -13 56 -5 64 15 6 18 -5 20
-21 4 -15 -15 -43 -4 -43 16 0 11 10 15 35 15 39 0 44 13 19 48 -18 26 -37 28
-58 6z m52 -21 c2 -8 -6 -13 -22 -13 -25 0 -33 10 -19 24 10 10 36 3 41 -11z"/>
<path d="M2545 250 c-3 -5 -12 -7 -20 -3 -12 4 -15 -6 -15 -51 0 -31 5 -56 10
-56 6 0 10 13 10 29 0 39 9 61 26 61 8 0 14 7 14 15 0 17 -16 20 -25 5z"/>
<path d="M2598 249 c-26 -15 -25 -95 1 -109 27 -14 37 -13 55 6 22 21 20 77
-2 97 -21 19 -30 20 -54 6z m48 -36 c8 -29 -6 -58 -27 -58 -15 0 -24 46 -15
71 9 23 35 16 42 -13z"/>
<path d="M2730 250 c-8 -5 -18 -6 -22 -4 -4 3 -8 -20 -8 -50 0 -68 18 -75 22
-8 2 34 7 47 18 47 11 0 16 -13 18 -47 4 -63 22 -62 22 2 0 52 -21 78 -50 60z"/>
<path d="M462 238 c-20 -20 -15 -86 7 -98 11 -5 24 -10 30 -10 19 0 41 32 41
60 0 48 -48 78 -78 48z m56 -44 c3 -31 -18 -52 -39 -38 -11 6 -12 58 -2 68 16
16 38 -1 41 -30z"/>
<path d="M590 218 c0 -18 3 -43 6 -55 7 -25 33 -38 47 -24 5 5 16 7 23 4 11
-4 14 7 14 51 0 31 -4 56 -10 56 -5 0 -10 -20 -10 -45 0 -33 -5 -47 -16 -52
-21 -8 -34 14 -34 60 0 20 -4 37 -10 37 -5 0 -10 -15 -10 -32z"/>
<path d="M712 238 c-20 -20 -14 -37 19 -54 23 -12 28 -19 20 -27 -9 -9 -17 -8
-32 1 -27 17 -35 9 -14 -12 20 -19 35 -20 59 -3 22 16 12 45 -20 53 -13 3 -24
13 -24 21 0 11 7 13 32 7 29 -6 31 -5 19 10 -16 19 -42 21 -59 4z"/>
<path d="M790 195 c0 -30 5 -55 10 -55 6 0 10 25 10 55 0 30 -4 55 -10 55 -5
0 -10 -25 -10 -55z"/>
<path d="M1520 242 c0 -5 7 -31 15 -58 8 -27 15 -50 15 -51 0 -1 -7 -9 -16
-18 -9 -9 -13 -19 -10 -22 13 -13 35 23 54 90 11 37 16 67 11 67 -5 0 -12 -14
-16 -30 -8 -44 -21 -46 -29 -5 -3 19 -10 35 -15 35 -5 0 -9 -4 -9 -8z"/>
<path d="M2810 195 c0 -30 5 -55 10 -55 6 0 10 25 10 55 0 30 -4 55 -10 55 -5
0 -10 -25 -10 -55z"/>
</g>
</svg>
