<?xml version="1.0" standalone="no"?>
<!DOCTYPE svg PUBLIC "-//W3C//DTD SVG 20010904//EN"
 "http://www.w3.org/TR/2001/REC-SVG-20010904/DTD/svg10.dtd">
<svg version="1.0" xmlns="http://www.w3.org/2000/svg"
 width="1414.000000pt" height="1416.000000pt" viewBox="0 0 1414.000000 1416.000000"
 preserveAspectRatio="xMidYMid meet">

<g transform="translate(0.000000,1416.000000) scale(0.100000,-0.100000)"
fill="#000000" stroke="none">
<path d="M6540 14144 c-25 -2 -101 -11 -170 -18 -69 -8 -154 -18 -189 -21
-225 -22 -478 -77 -931 -199 -713 -194 -955 -289 -1545 -609 -395 -214 -475
-265 -860 -553 -620 -463 -1165 -1028 -1587 -1644 -124 -181 -272 -421 -376
-610 -107 -195 -320 -652 -402 -865 -108 -282 -245 -737 -310 -1030 -43 -194
-109 -635 -129 -850 -53 -593 -35 -1196 54 -1755 9 -52 22 -138 30 -190 39
-248 191 -803 309 -1128 110 -303 327 -778 474 -1037 67 -119 493 -765 570
-864 228 -295 616 -710 907 -971 122 -109 718 -559 900 -680 458 -304 1147
-622 1730 -798 318 -97 629 -172 858 -207 53 -8 141 -22 195 -30 156 -24 249
-33 567 -55 369 -25 511 -25 875 -1 448 30 736 74 1193 182 678 160 1083 313
1692 638 229 122 352 196 585 351 497 332 701 499 1090 889 579 580 997 1166
1362 1906 59 121 122 254 140 295 48 115 211 560 256 700 102 314 227 896 262
1215 5 50 15 133 22 185 9 68 13 266 13 690 0 656 0 662 -71 1125 -102 658
-291 1269 -594 1915 -117 250 -137 285 -358 645 -228 372 -230 374 -426 630
-287 375 -472 575 -851 921 -300 273 -398 353 -665 544 -451 322 -1002 615
-1555 828 -618 238 -1064 346 -1810 439 -102 12 -246 16 -670 18 -297 1 -560
1 -585 -1z m845 -124 c121 -6 274 -17 340 -24 66 -8 152 -17 190 -21 39 -3
138 -17 220 -31 83 -14 193 -32 245 -40 52 -8 131 -23 175 -34 44 -10 124 -29
178 -40 217 -47 741 -222 1017 -339 698 -296 1346 -701 1910 -1195 402 -352
858 -870 1149 -1305 108 -160 299 -481 401 -670 104 -195 159 -313 271 -579
298 -712 468 -1463 520 -2292 19 -304 -1 -878 -42 -1220 -12 -97 -75 -478 -89
-530 -5 -19 -21 -93 -35 -165 -87 -431 -304 -1039 -545 -1530 -135 -273 -344
-630 -493 -840 -291 -412 -594 -772 -882 -1046 -324 -309 -486 -444 -825 -687
-730 -524 -1536 -886 -2460 -1107 -239 -57 -495 -100 -825 -139 -429 -50
-1022 -47 -1556 9 -229 24 -829 144 -1059 212 -592 175 -1023 358 -1541 655
-387 222 -451 265 -836 565 -454 354 -702 592 -1078 1037 -256 304 -529 711
-771 1151 -350 639 -603 1381 -723 2125 -42 254 -57 417 -82 830 -18 309 -19
384 -10 580 20 408 71 835 132 1110 111 498 137 590 290 1013 83 228 152 397
220 540 54 114 99 210 99 213 0 11 140 261 237 423 272 453 538 802 927 1216
83 88 171 180 196 203 80 77 383 346 430 382 25 19 81 64 125 101 184 153 533
389 800 541 488 279 1009 506 1480 643 344 101 721 183 989 215 50 6 146 19
215 30 279 41 716 57 1096 40z"/>
<path d="M6575 13834 c-16 -2 -100 -11 -185 -19 -387 -40 -562 -74 -1078 -214
-635 -173 -900 -276 -1397 -544 -444 -239 -515 -284 -890 -566 -676 -508
-1228 -1107 -1667 -1806 -180 -287 -277 -469 -441 -830 -154 -339 -199 -460
-313 -840 -120 -397 -163 -596 -219 -1010 -115 -836 -72 -1709 125 -2504 101
-410 183 -659 335 -1021 186 -443 298 -650 592 -1097 321 -488 450 -649 823
-1026 317 -322 391 -386 775 -672 524 -390 673 -482 1175 -718 478 -224 923
-377 1415 -486 158 -35 235 -49 500 -91 167 -26 534 -55 850 -67 240 -8 657
19 1015 67 239 32 341 51 629 120 395 93 581 149 876 262 277 106 415 171 745
346 217 115 337 187 570 343 340 227 446 305 620 454 895 767 1573 1725 1960
2770 135 364 155 426 219 680 77 299 135 588 161 795 5 47 15 119 20 160 23
168 30 355 30 774 0 544 -6 627 -76 1076 -108 688 -314 1318 -655 2003 -28 56
-142 250 -252 431 -206 334 -406 616 -613 861 -113 134 -334 369 -429 457
-447 411 -530 480 -800 673 -449 322 -934 582 -1473 791 -611 237 -992 331
-1752 430 -99 13 -234 17 -645 19 -286 2 -533 1 -550 -1z m760 -104 c132 -6
296 -17 365 -25 69 -7 154 -16 190 -20 159 -15 577 -91 825 -151 220 -53 773
-242 976 -334 49 -22 129 -58 178 -80 361 -163 846 -454 1196 -718 503 -378
941 -816 1333 -1333 223 -296 526 -803 694 -1164 151 -323 336 -829 401 -1095
132 -538 192 -928 218 -1420 20 -360 -10 -960 -62 -1265 -11 -66 -27 -158 -34
-205 -115 -706 -399 -1486 -788 -2163 -383 -665 -899 -1275 -1524 -1799 -107
-90 -418 -320 -573 -425 -268 -180 -703 -415 -1010 -546 -499 -212 -1087 -385
-1553 -457 -649 -100 -1066 -114 -1742 -60 -193 16 -263 26 -570 85 -345 66
-539 114 -810 201 -432 138 -822 312 -1245 554 -369 211 -432 254 -820 556
-432 337 -662 558 -1021 984 -439 521 -900 1318 -1112 1925 -25 72 -57 162
-71 200 -97 270 -210 746 -265 1120 -63 422 -91 1077 -62 1435 28 343 81 735
121 890 11 41 26 111 35 155 87 466 404 1287 683 1775 469 819 1076 1508 1827
2072 335 251 712 477 1132 679 567 273 1272 485 1853 559 47 6 144 19 215 30
119 17 383 37 580 43 44 2 107 4 140 5 33 1 168 -3 300 -8z"/>
<path d="M6405 13220 c-4 -6 8 -10 30 -10 47 0 93 -24 100 -53 3 -12 4 -194 3
-405 -3 -436 2 -412 -90 -412 -26 0 -48 -4 -48 -9 0 -13 162 -17 562 -13 l348
4 9 36 c9 41 31 197 31 226 0 15 -3 16 -15 6 -8 -7 -15 -17 -15 -23 0 -6 -14
-32 -30 -58 -39 -60 -118 -114 -195 -134 -69 -18 -223 -20 -259 -4 -38 18 -46
58 -46 230 l0 159 42 0 c89 0 153 -55 183 -158 9 -29 20 -52 25 -52 6 0 10 90
10 231 0 179 -3 230 -12 227 -7 -3 -16 -24 -20 -48 -15 -85 -79 -144 -171
-156 l-46 -7 -3 184 c-2 101 1 189 5 194 14 18 215 11 282 -9 77 -23 139 -82
157 -149 7 -26 18 -47 25 -47 11 0 13 27 11 128 l-3 127 -432 3 c-283 1 -434
-1 -438 -8z"/>
<path d="M7630 13195 c7 -8 25 -15 40 -15 38 0 70 -41 70 -89 0 -20 -11 -108
-25 -196 -14 -88 -35 -221 -45 -297 -38 -261 -44 -274 -136 -272 -30 1 -54 -2
-54 -7 0 -5 2 -9 4 -9 2 0 82 -13 177 -30 220 -38 411 -60 514 -60 137 0 250
52 289 134 20 42 21 118 2 155 -22 42 -90 98 -161 133 -36 18 -65 35 -65 39 0
4 25 10 55 14 65 8 152 50 178 86 50 69 27 170 -55 244 -65 58 -151 86 -379
120 -96 14 -226 35 -291 46 -139 23 -133 23 -118 4z m482 -111 c100 -34 150
-120 127 -218 -16 -69 -60 -111 -135 -126 -54 -11 -149 -6 -158 9 -3 4 7 85
21 179 l27 172 36 0 c20 0 57 -7 82 -16z m-63 -410 c64 -19 135 -80 152 -131
6 -19 9 -62 7 -94 -3 -46 -11 -67 -34 -96 -43 -54 -86 -73 -166 -73 -114 0
-136 22 -125 123 9 75 37 249 43 270 7 22 52 22 123 1z"/>
<path d="M5980 13131 c0 -11 -7 -27 -16 -35 -13 -14 -34 -15 -137 -10 -141 8
-196 -4 -286 -58 -161 -98 -180 -300 -39 -405 49 -36 120 -58 289 -92 85 -18
174 -42 199 -54 61 -31 93 -80 87 -131 -8 -55 -34 -86 -100 -120 -141 -71
-338 -12 -432 129 -38 57 -59 71 -50 33 2 -13 18 -84 35 -157 16 -74 30 -136
30 -138 0 -2 7 -3 15 -3 9 0 20 11 27 24 6 14 18 28 27 32 9 4 77 8 151 9 150
2 210 17 302 76 194 125 193 350 -2 449 -21 11 -128 40 -238 64 -111 25 -215
52 -232 61 -44 23 -72 72 -66 114 16 106 189 163 332 110 55 -21 125 -80 165
-140 10 -13 20 -21 25 -17 6 6 -22 124 -62 266 -5 19 -24 14 -24 -7z"/>
<path d="M8895 12943 c59 -31 77 -55 71 -93 -8 -45 -247 -670 -271 -706 -17
-26 -19 -27 -88 -21 -38 3 -66 2 -61 -2 5 -5 108 -46 229 -91 121 -45 304
-115 407 -156 103 -41 193 -74 200 -74 15 0 154 238 145 247 -4 3 -27 -13 -53
-36 -102 -95 -211 -110 -384 -53 -52 17 -105 39 -117 47 -40 28 -31 78 54 293
41 103 42 104 116 55 56 -36 81 -98 73 -180 -5 -51 -4 -63 8 -63 7 0 17 12 20
28 4 15 38 107 76 204 39 98 70 182 70 189 0 18 -16 6 -51 -40 -19 -24 -50
-52 -69 -62 -56 -30 -180 -21 -180 13 0 7 28 86 62 176 l63 164 33 -6 c18 -3
79 -27 135 -54 75 -36 112 -60 139 -91 39 -46 63 -117 53 -162 -4 -16 -2 -36
3 -46 9 -15 14 -9 35 37 35 80 70 190 63 198 -8 7 -265 107 -421 164 -60 21
-165 61 -232 89 -118 47 -193 67 -128 32z"/>
<path d="M4520 12656 c0 -40 -1 -40 -123 -61 -161 -28 -280 -104 -333 -211
-54 -111 -26 -239 65 -299 65 -44 94 -48 341 -49 217 -1 238 -3 270 -21 19
-12 44 -37 54 -57 18 -31 18 -40 7 -77 -35 -117 -189 -192 -331 -162 -68 15
-143 53 -192 97 -75 67 -70 43 25 -141 34 -65 67 -121 73 -122 6 -2 16 15 23
37 15 49 42 64 153 81 100 15 186 56 259 126 101 96 135 192 105 295 -18 63
-59 107 -131 140 -48 22 -62 23 -285 24 -254 0 -295 7 -330 51 -88 112 109
269 290 232 68 -14 104 -32 153 -75 66 -60 72 -37 15 59 -16 27 -42 76 -59
108 -33 67 -49 75 -49 25z"/>
<path d="M10020 12481 c0 -6 4 -11 9 -11 5 0 23 -14 40 -31 52 -51 41 -96 -61
-246 -26 -40 -94 -144 -149 -230 -147 -231 -174 -263 -216 -263 -19 0 -48 7
-64 16 -17 8 -33 13 -36 10 -5 -5 112 -84 427 -286 80 -51 189 -122 243 -157
81 -52 102 -62 114 -52 19 16 183 216 183 223 0 15 -29 3 -75 -29 -81 -58
-181 -79 -256 -54 -41 14 -182 99 -229 137 -57 48 -53 58 150 372 101 155 194
295 208 311 29 36 74 38 133 8 23 -11 44 -17 47 -13 4 4 2 8 -3 10 -6 2 -96
59 -200 127 -245 159 -265 171 -265 158z"/>
<path d="M3270 11895 c0 -14 18 -132 41 -263 110 -645 112 -665 76 -734 -13
-27 -20 -48 -15 -48 12 0 252 179 256 191 5 13 -6 11 -31 -5 -82 -53 -149 4
-151 128 l-1 60 125 98 c69 54 135 103 148 110 20 10 34 6 104 -28 118 -57
132 -84 72 -141 -20 -19 -34 -37 -30 -40 6 -6 391 280 403 300 4 7 -2 7 -18 3
-54 -17 -80 -17 -129 -1 -29 10 -227 102 -440 206 -213 104 -393 189 -399 189
-6 0 -11 -11 -11 -25z m259 -348 c80 -39 147 -77 148 -83 3 -10 -66 -67 -210
-171 -20 -14 -35 -19 -41 -13 -9 9 -55 272 -56 318 0 12 3 22 8 22 4 0 72 -33
151 -73z"/>
<path d="M6775 11529 c-479 -30 -976 -144 -1395 -321 -516 -219 -874 -444
-1285 -808 -613 -544 -1075 -1278 -1301 -2065 -256 -892 -236 -1832 57 -2680
132 -382 288 -705 497 -1025 166 -254 362 -491 603 -725 433 -421 812 -676
1373 -924 343 -152 802 -278 1176 -322 542 -63 925 -50 1440 52 750 147 1434
480 2025 983 134 114 395 376 499 501 330 395 566 786 744 1235 108 274 170
486 236 810 68 336 94 696 76 1048 -12 243 -7 205 -76 592 -56 309 -71 371
-171 674 -73 222 -90 264 -230 546 -85 170 -231 414 -340 568 -151 213 -467
566 -663 740 -357 319 -865 638 -1280 804 -636 254 -1296 360 -1985 317z m658
-80 c425 -29 850 -131 1300 -310 565 -225 1137 -623 1547 -1074 253 -278 398
-473 566 -761 259 -445 426 -883 518 -1362 118 -612 115 -1157 -9 -1779 -30
-147 -128 -478 -194 -651 -367 -966 -1100 -1799 -2010 -2286 -312 -167 -688
-315 -1006 -395 -151 -38 -414 -86 -587 -106 -347 -42 -880 -25 -1265 41 -116
19 -413 92 -533 129 -268 85 -654 259 -911 411 -531 314 -920 669 -1330 1214
-247 328 -491 813 -633 1260 -72 227 -143 566 -166 796 -44 453 -30 921 41
1299 135 722 441 1384 915 1980 119 148 480 508 634 631 615 490 1292 797
2022 918 158 26 372 53 468 60 83 5 476 -4 633 -15z"/>
<path d="M7004 10668 c-92 -82 -153 -123 -261 -178 -182 -92 -371 -144 -618
-170 -60 -6 -166 -18 -235 -26 -69 -8 -147 -17 -175 -20 -131 -14 -337 -59
-432 -94 -207 -76 -393 -226 -486 -390 -38 -68 -66 -154 -85 -265 l-18 -99
-90 -12 c-265 -36 -486 -199 -613 -453 -90 -177 -148 -436 -177 -784 -27 -333
-94 -613 -186 -777 -46 -84 -115 -178 -185 -254 l-63 -68 62 -67 c85 -92 137
-165 186 -259 107 -205 151 -401 192 -857 26 -276 56 -424 121 -591 46 -119
90 -195 162 -279 109 -128 232 -212 382 -262 67 -22 100 -26 203 -28 l124 -1
48 -93 c27 -50 89 -144 137 -207 202 -264 263 -367 304 -519 12 -44 22 -81 24
-83 1 -1 27 6 56 17 66 25 196 126 269 210 76 85 76 85 230 -45 187 -157 272
-282 312 -456 6 -26 14 -48 18 -48 16 0 195 152 292 248 l107 106 34 -16 c91
-43 339 -272 391 -361 15 -26 32 -47 36 -47 5 0 28 28 53 62 80 112 327 331
398 353 17 6 40 -12 128 -98 138 -136 269 -247 291 -247 4 0 11 21 15 47 11
77 49 167 98 235 71 100 331 338 369 338 6 0 45 -37 87 -81 42 -45 103 -101
136 -124 60 -43 156 -95 174 -95 5 0 12 15 16 32 20 103 85 254 148 348 17 25
82 114 145 198 63 84 135 192 161 240 l46 87 67 -3 c136 -7 314 38 434 109 74
43 205 167 254 239 142 210 238 556 265 955 23 355 98 633 216 809 23 33 75
100 116 148 77 91 79 97 35 132 -49 39 -165 204 -212 301 -108 221 -130 328
-199 945 -15 131 -55 336 -82 417 -71 215 -182 377 -337 491 -116 86 -223 127
-362 138 -80 7 -80 7 -84 38 -21 133 -29 170 -46 221 -26 76 -60 134 -127 218
-183 228 -515 365 -988 407 -200 18 -526 68 -621 95 -218 64 -371 144 -514
268 -36 31 -70 57 -76 57 -6 0 -38 -24 -70 -52z m139 -171 c203 -172 497 -265
982 -312 434 -42 635 -82 785 -158 249 -126 409 -342 410 -553 0 -56 -7 -64
-60 -64 -40 0 -153 -42 -200 -75 -44 -30 -90 -111 -90 -158 0 -81 54 -166 124
-198 148 -67 308 44 332 231 10 82 17 90 72 90 63 0 183 -34 257 -73 77 -41
196 -159 262 -261 105 -160 147 -337 198 -846 27 -261 42 -352 87 -515 41
-150 129 -329 212 -432 36 -45 66 -87 66 -94 0 -6 -20 -35 -44 -63 -101 -119
-182 -274 -231 -443 -38 -131 -62 -270 -90 -528 -48 -444 -73 -581 -135 -728
-62 -149 -181 -297 -299 -371 -94 -60 -285 -107 -368 -91 l-33 6 0 63 c0 85
-22 153 -67 205 -61 72 -144 98 -216 68 -44 -19 -103 -87 -116 -134 -36 -127
19 -224 158 -278 63 -25 71 -31 65 -49 -13 -43 -58 -117 -124 -203 -107 -137
-261 -371 -299 -450 -22 -45 -41 -73 -51 -73 -36 0 -200 161 -200 197 0 9 24
41 53 73 69 74 90 119 95 201 3 52 0 74 -17 106 -24 48 -72 91 -109 99 -15 3
-33 8 -40 10 -27 8 -101 -19 -132 -49 -46 -45 -72 -103 -77 -172 -4 -50 0 -74
26 -144 18 -47 30 -90 27 -96 -2 -7 -51 -48 -108 -92 -139 -107 -284 -262
-332 -352 -20 -39 -43 -71 -51 -71 -29 0 -225 179 -225 206 0 7 23 31 50 54
28 23 63 63 78 89 55 94 26 254 -58 309 -29 20 -45 23 -96 20 -82 -5 -132 -38
-168 -109 -33 -67 -33 -109 0 -229 l26 -94 -29 -26 c-17 -14 -72 -54 -123 -90
-51 -35 -126 -97 -166 -137 -40 -40 -76 -73 -79 -73 -4 0 -50 40 -101 89 -51
50 -139 120 -194 158 -74 50 -100 73 -100 89 0 12 11 56 25 98 29 89 30 114 9
185 -39 132 -184 187 -288 108 -43 -33 -69 -88 -74 -157 -7 -94 11 -136 89
-211 67 -65 68 -66 52 -90 -45 -68 -181 -189 -213 -189 -10 0 -23 13 -30 31
-47 113 -193 274 -362 401 l-107 80 21 51 c11 29 27 84 36 122 14 64 14 75 -2
128 -33 112 -137 181 -232 156 -84 -23 -151 -130 -140 -222 7 -64 35 -116 103
-194 54 -61 55 -65 42 -89 -20 -39 -168 -174 -189 -174 -13 0 -28 21 -52 73
-19 40 -111 181 -212 322 -163 228 -215 311 -216 341 0 6 31 23 68 38 114 44
165 111 165 216 0 118 -79 200 -193 200 -62 0 -95 -16 -144 -70 -52 -58 -66
-97 -66 -183 0 -55 -4 -78 -15 -87 -32 -26 -249 11 -340 57 -72 37 -165 114
-219 182 -91 112 -143 222 -185 387 -18 71 -69 444 -86 629 -13 147 -63 399
-102 520 -20 64 -105 234 -145 293 -17 25 -53 70 -80 100 l-49 54 53 56 c71
74 111 135 158 235 85 181 129 375 175 777 47 409 64 506 112 635 54 146 102
225 198 321 115 116 212 168 347 185 48 7 93 9 101 6 8 -3 17 -26 20 -54 22
-174 103 -271 237 -281 43 -3 66 1 96 16 94 48 148 153 124 241 -24 89 -120
155 -272 188 -77 16 -78 17 -78 47 0 55 27 161 58 227 98 216 321 371 624 434
77 17 299 44 563 70 446 44 732 139 940 314 33 28 64 51 68 51 4 0 36 -24 70
-53z m-2188 -1211 c50 -18 63 -27 78 -58 16 -33 17 -40 3 -71 -16 -40 -41 -57
-84 -57 -58 0 -121 93 -122 178 l0 44 33 -7 c17 -4 59 -17 92 -29z m4351 -18
c-17 -123 -91 -192 -165 -154 -54 29 -67 83 -30 130 23 29 44 39 124 61 79 22
79 22 71 -37z m-4297 -4173 c81 -41 41 -153 -64 -180 -28 -7 -53 -11 -57 -8
-13 7 -9 112 6 147 23 55 62 69 115 41z m4200 -1 c31 -22 51 -73 51 -129 0
-31 -5 -47 -15 -51 -28 -11 -85 7 -120 38 -30 25 -35 37 -35 72 0 54 24 78 85
85 6 0 21 -6 34 -15z m-3510 -518 c34 -36 38 -98 11 -168 -12 -32 -26 -60 -31
-64 -6 -3 -27 12 -48 34 -42 44 -66 115 -56 163 13 58 84 78 124 35z m2842 3
c49 -49 -6 -224 -71 -224 -21 0 -28 8 -42 50 -23 67 -22 123 2 163 16 26 26
32 55 32 22 0 43 -8 56 -21z m-1956 -290 c40 -40 17 -229 -28 -229 -17 0 -61
47 -81 86 -22 46 -30 107 -16 133 23 44 86 49 125 10z m1064 16 c38 -19 45
-55 26 -121 -16 -57 -85 -142 -105 -129 -5 3 -16 21 -24 38 -35 85 -27 169 21
206 31 25 45 26 82 6z"/>
<path d="M6905 8683 c-11 -2 -30 -6 -42 -8 -36 -8 -81 -53 -115 -116 -24 -46
-41 -65 -72 -81 -99 -49 -153 -115 -183 -221 -14 -53 -21 -61 -67 -91 -122
-78 -176 -178 -181 -338 -4 -98 -4 -98 -39 -132 -89 -84 -114 -217 -71 -388 6
-23 3 -27 -24 -33 -42 -9 -87 -49 -113 -99 -19 -37 -20 -52 -15 -161 13 -281
121 -483 290 -543 l47 -17 0 -80 c-1 -177 -34 -362 -86 -471 -33 -71 -125
-154 -219 -199 -135 -65 -352 -109 -645 -130 -52 -4 -101 -11 -108 -14 -9 -5
2 -22 37 -54 l51 -48 67 6 c38 4 101 11 141 16 40 5 94 9 118 9 42 0 45 -1 38
-22 -10 -33 -33 -77 -64 -123 -59 -87 -60 -79 32 -139 239 -155 541 -270 865
-328 113 -20 160 -23 393 -22 229 0 282 3 390 22 212 38 394 96 611 195 80 36
314 171 323 186 3 4 -17 43 -43 85 -55 86 -77 133 -67 143 3 4 73 -1 154 -10
218 -25 211 -26 268 36 l49 52 -50 3 c-551 29 -844 136 -944 345 -17 36 -38
108 -50 167 -25 136 -42 351 -29 367 5 7 26 17 46 24 91 30 155 99 217 233 48
104 75 221 75 332 0 81 -3 98 -28 145 -27 53 -31 56 -130 106 -2 1 4 39 13 84
28 135 6 225 -75 313 l-42 45 -3 98 c-6 162 -58 259 -179 337 -48 30 -54 39
-74 101 -37 112 -85 166 -207 231 -10 6 -31 34 -46 63 -32 62 -54 88 -89 106
-29 14 -96 24 -125 18z m84 -130 c20 -19 34 -46 43 -82 l13 -54 59 -20 c103
-34 159 -108 181 -240 5 -32 12 -40 56 -62 72 -37 123 -88 149 -148 21 -47 22
-63 17 -164 l-5 -111 29 -12 c16 -7 41 -27 56 -44 78 -92 73 -214 -15 -433
l-21 -52 47 14 c56 18 116 19 144 4 27 -15 48 -69 48 -127 0 -114 -85 -336
-155 -406 -37 -38 -62 -45 -113 -35 -32 7 -32 6 -72 -70 -45 -86 -154 -226
-226 -290 -27 -24 -83 -60 -124 -80 -96 -46 -194 -54 -281 -23 -142 50 -302
206 -397 389 l-41 80 -54 -5 c-52 -4 -56 -3 -92 34 -73 73 -155 293 -155 416
0 62 18 111 45 122 28 10 122 7 150 -6 14 -6 27 -9 30 -6 3 2 -13 53 -36 113
-35 92 -41 120 -41 186 -1 103 25 158 94 202 47 30 49 34 43 67 -17 97 -17
148 -1 202 20 71 85 145 155 177 28 14 53 31 55 40 3 9 10 39 16 66 23 106 93
181 190 206 39 10 50 17 50 32 0 38 24 98 48 122 33 33 74 32 111 -2z m466
-2358 c40 -346 121 -470 390 -601 126 -61 136 -68 161 -112 15 -26 44 -74 65
-106 22 -33 39 -64 39 -70 0 -29 -302 -176 -482 -235 -413 -137 -890 -144
-1312 -21 -218 63 -556 218 -556 254 0 6 19 42 42 80 87 150 82 144 184 192
220 102 335 214 384 372 17 54 50 259 50 308 0 28 23 13 142 -92 153 -135 232
-176 352 -182 64 -3 93 0 140 17 96 34 195 99 291 192 56 54 92 83 96 76 4 -7
10 -39 14 -72z"/>
<path d="M6903 7698 c-13 -34 -54 -118 -93 -188 -147 -265 -164 -372 -80 -495
78 -115 256 -133 362 -37 77 70 102 162 74 273 -9 35 -51 129 -94 209 -74 140
-119 231 -138 278 -8 20 -11 16 -31 -40z m105 -270 c84 -141 95 -170 90 -244
-7 -107 -78 -171 -180 -162 -93 9 -167 102 -154 192 11 74 142 316 170 316 7
0 40 -46 74 -102z"/>
<path d="M8650 6335 c-10 -12 -10 -21 0 -44 18 -45 36 -57 176 -117 71 -30
133 -59 137 -64 5 -4 6 -17 2 -29 -8 -27 -44 -27 -78 -1 -14 11 -28 20 -31 20
-13 0 -5 -29 15 -54 28 -36 83 -33 112 5 38 53 11 76 -173 149 -82 33 -130 66
-130 91 0 20 60 4 187 -49 145 -61 154 -64 173 -52 23 14 10 22 -161 94 -159
67 -207 78 -229 51z"/>
<path d="M2519 11203 c-101 -120 -236 -281 -301 -357 -65 -76 -118 -142 -117
-145 1 -13 172 -150 181 -145 4 3 -3 25 -18 49 -15 26 -28 66 -31 97 -4 44 0
61 22 103 35 64 83 125 100 125 7 0 86 -62 176 -137 335 -279 416 -352 430
-384 12 -30 11 -37 -15 -83 l-28 -51 35 35 c55 55 318 373 312 378 -2 3 -23
-12 -45 -32 -22 -20 -47 -36 -55 -36 -36 0 -88 35 -230 155 -82 70 -207 174
-277 233 -91 74 -128 111 -128 126 0 25 89 116 137 140 40 20 103 20 166 1 35
-10 47 -11 47 -2 -1 12 -146 137 -167 144 -6 2 -93 -94 -194 -214z"/>
<path d="M11065 11249 c-220 -66 -431 -125 -468 -131 -67 -12 -72 -11 -139 17
-11 4 -18 3 -18 -3 0 -14 221 -244 228 -238 2 3 -7 25 -22 50 -45 76 -33 107
54 144 100 43 93 47 239 -103 149 -153 143 -133 87 -265 -27 -66 -35 -75 -60
-78 -20 -3 -36 4 -57 24 -16 15 -32 25 -35 21 -4 -3 67 -82 157 -174 162 -167
197 -199 186 -172 -30 73 -30 88 -8 171 12 46 78 245 145 443 139 408 142 415
124 414 -7 0 -193 -54 -413 -120z m129 -44 c-19 -77 -101 -289 -113 -293 -15
-5 -211 195 -211 215 0 7 24 19 53 27 184 53 263 75 270 75 4 1 5 -10 1 -24z"/>
<path d="M11854 10621 c-52 -24 -108 -90 -124 -146 -15 -55 -9 -194 17 -359
24 -154 18 -219 -27 -258 -35 -32 -102 -38 -149 -13 -43 22 -98 92 -121 152
-40 107 -17 261 50 345 32 40 39 64 16 55 -28 -11 -266 -178 -266 -187 0 -5
16 -12 35 -16 47 -8 69 -39 99 -137 59 -192 200 -325 354 -335 117 -8 204 51
236 159 22 73 20 135 -10 306 -17 97 -24 173 -22 222 3 66 6 75 33 98 24 22
36 25 80 21 71 -6 107 -35 147 -115 29 -59 33 -77 33 -148 0 -67 -4 -89 -27
-135 -15 -30 -33 -63 -40 -72 -23 -32 2 -32 45 0 23 18 76 56 117 85 l75 52
-42 3 c-46 3 -49 7 -89 150 -58 206 -267 342 -420 273z"/>
<path d="M1936 10448 c-8 -13 -32 -54 -54 -93 -22 -38 -74 -130 -116 -203 -76
-133 -98 -186 -51 -122 32 44 43 50 86 50 23 0 56 -12 95 -36 32 -20 153 -90
268 -155 333 -191 346 -201 317 -273 -47 -116 -20 -82 94 119 54 94 111 191
127 217 37 59 33 86 -5 30 -30 -45 -54 -57 -100 -47 -48 10 -637 355 -660 387
-20 27 -20 27 0 88 22 64 22 74 -1 38z"/>
<path d="M1596 9615 c-54 -19 -129 -96 -170 -174 -29 -55 -228 -546 -250 -618
-4 -14 -3 -23 3 -23 5 0 13 9 16 20 13 40 56 80 86 80 16 0 125 -37 241 -81
117 -45 264 -101 325 -124 62 -23 124 -50 138 -59 34 -23 46 -57 34 -98 -12
-43 -12 -65 0 -53 12 12 171 430 177 465 5 23 4 23 -12 -5 -28 -50 -56 -75
-85 -75 -26 0 -173 50 -270 92 -42 18 -49 24 -49 49 0 39 21 50 175 100 72 23
180 59 242 81 l111 40 56 141 c61 154 69 188 33 146 -12 -15 -40 -36 -62 -47
-44 -21 -372 -136 -421 -146 l-32 -7 -4 90 c-5 111 -30 155 -109 195 -59 29
-113 33 -173 11z m95 -246 c66 -36 89 -78 89 -158 -1 -78 -36 -194 -61 -199
-9 -2 -96 27 -193 65 -201 76 -190 62 -140 173 54 118 102 153 201 147 39 -3
77 -13 104 -28z"/>
<path d="M12774 9395 c19 -89 19 -91 -5 -118 -19 -20 -61 -37 -194 -77 -93
-28 -245 -76 -337 -106 -92 -30 -177 -54 -188 -54 -39 0 -80 30 -104 78 -39
75 -32 21 19 -144 25 -79 45 -147 45 -149 0 -3 4 -5 8 -5 5 0 6 26 4 58 -6 83
15 101 182 153 72 22 178 55 236 74 129 41 284 85 302 85 17 0 -71 -89 -377
-378 -143 -135 -261 -251 -263 -258 -3 -13 1 -14 258 -54 350 -53 452 -70 489
-79 20 -5 60 -12 89 -16 28 -4 52 -11 52 -16 0 -4 -71 -31 -157 -58 -281 -88
-525 -161 -542 -161 -26 0 -60 28 -81 68 -34 65 -22 9 44 -211 70 -229 83
-267 91 -267 3 0 3 29 -1 65 -9 83 3 98 100 126 39 12 195 59 348 105 152 46
289 84 305 84 34 0 68 -32 78 -73 8 -32 25 -46 25 -20 0 28 -110 366 -124 381
-7 7 -144 32 -326 60 -172 26 -315 52 -317 57 -2 6 103 111 232 233 138 131
235 230 235 241 0 10 -4 31 -9 47 -5 16 -31 99 -56 184 -26 85 -52 160 -57
165 -7 7 -8 0 -4 -20z"/>
<path d="M1076 8318 c-27 -171 -84 -491 -107 -600 -11 -53 -19 -109 -17 -125
l4 -28 8 30 c12 49 33 79 60 89 27 10 66 5 401 -54 88 -16 204 -36 258 -46
126 -21 140 -33 147 -116 4 -44 8 -56 12 -38 15 59 148 827 148 851 0 25 -8
29 -127 71 -71 24 -130 43 -132 42 -2 -2 28 -34 66 -71 84 -82 107 -136 106
-253 -1 -95 -28 -221 -51 -238 -20 -16 -66 -12 -249 20 -138 24 -140 26 -104
103 32 71 104 115 189 115 34 0 44 15 15 24 -29 8 -324 58 -380 63 -56 6 -74
-10 -25 -22 85 -20 145 -101 140 -188 l-3 -52 -37 -3 c-30 -3 -254 35 -320 54
-25 7 -23 49 7 167 47 183 88 228 228 252 20 3 37 10 37 15 0 11 -19 16 -125
30 -44 6 -91 13 -106 16 -25 5 -25 4 -43 -108z"/>
<path d="M12288 7684 c-9 -14 4 -324 13 -324 5 0 9 13 9 29 0 36 17 83 33 93
25 16 84 7 143 -21 l61 -29 6 -113 c4 -63 7 -150 7 -194 l0 -81 -85 -42 c-109
-54 -131 -54 -144 -4 -6 20 -11 45 -11 55 0 9 -4 17 -8 17 -9 0 -5 -357 4
-448 5 -48 24 -66 24 -22 0 33 59 88 154 143 50 29 213 120 361 201 288 158
365 204 365 216 0 4 -60 35 -132 70 -73 35 -254 121 -402 192 -148 70 -287
140 -309 155 -21 15 -49 47 -61 71 -13 25 -25 41 -28 36z m477 -354 c94 -44
145 -74 143 -82 -3 -7 -24 -24 -49 -37 -24 -13 -88 -48 -141 -78 -54 -30 -102
-52 -108 -48 -13 8 -14 315 -1 315 5 0 76 -31 156 -70z"/>
<path d="M928 7274 c-7 -11 10 -303 19 -324 7 -19 21 20 22 66 3 79 67 81 232
10 57 -25 165 -71 239 -103 81 -35 135 -64 135 -72 0 -16 -39 -40 -308 -198
-189 -110 -240 -130 -263 -98 -8 11 -14 33 -14 51 0 18 -4 36 -10 39 -13 8
-13 -59 0 -239 14 -200 20 -246 31 -246 5 0 9 12 9 27 0 46 64 92 411 295 388
228 454 269 453 283 0 6 -16 18 -35 28 -37 19 -395 176 -604 264 -203 86 -260
124 -297 197 -8 16 -17 25 -20 20z"/>
<path d="M12289 6488 c0 -2 -11 -50 -23 -108 -62 -281 -86 -403 -82 -407 2 -3
17 22 33 54 36 74 41 75 240 32 150 -32 153 -33 153 -59 0 -14 -6 -33 -12 -42
-7 -9 -116 -69 -241 -134 -157 -80 -231 -123 -237 -138 -13 -32 -62 -284 -58
-297 2 -6 15 6 28 27 19 29 52 52 145 102 197 105 309 162 316 162 4 0 11 -21
14 -47 16 -116 51 -173 129 -209 66 -31 110 -30 174 2 102 51 161 159 209 384
13 63 40 185 58 270 19 85 37 172 41 193 9 52 -11 47 -24 -6 -17 -67 -39 -81
-115 -74 -90 8 -634 125 -684 147 -48 21 -59 47 -49 110 4 25 2 40 -4 40 -5 0
-10 -1 -11 -2z m565 -507 c72 -16 145 -33 163 -36 41 -8 45 -22 28 -90 -41
-154 -94 -209 -205 -208 -114 1 -193 60 -205 155 -6 48 8 179 21 200 9 14 63
9 198 -21z"/>
<path d="M1926 6086 c11 -90 -6 -98 -321 -161 -99 -20 -214 -44 -255 -55 -155
-38 -208 -44 -233 -27 -13 9 -30 30 -36 49 -7 18 -17 42 -21 53 -16 39 -11
-25 11 -120 11 -49 33 -154 49 -233 32 -155 55 -218 44 -121 -5 49 -3 59 18
82 26 31 73 44 379 106 107 22 232 49 278 60 124 30 151 20 183 -68 30 -85 20
-6 -34 245 -28 134 -55 244 -60 244 -4 0 -5 -24 -2 -54z"/>
<path d="M2013 5361 c-117 -57 -624 -278 -654 -286 -37 -9 -74 9 -99 49 -28
47 -43 46 -26 -1 17 -45 116 -266 123 -273 3 -3 2 23 -2 58 -10 86 1 99 137
165 141 68 309 140 315 134 2 -3 -61 -159 -142 -348 -80 -189 -145 -352 -145
-363 0 -20 126 -314 141 -331 6 -6 8 11 4 45 -4 41 -1 65 12 93 18 38 26 42
316 173 163 74 316 138 338 143 55 12 88 -1 118 -47 47 -72 31 -11 -35 132
-36 80 -68 146 -69 146 -2 0 -1 -27 2 -60 10 -103 7 -104 -379 -270 -125 -54
-228 -93 -228 -87 0 6 86 218 192 471 105 254 193 469 196 479 7 27 -25 21
-115 -22z"/>
<path d="M11951 5177 c-296 -652 -293 -647 -280 -663 12 -14 153 -109 199
-134 35 -19 35 -4 1 35 -97 111 -105 257 -22 439 33 73 67 102 108 91 16 -3
78 -28 140 -56 61 -27 124 -54 138 -59 23 -9 26 -14 20 -38 -10 -41 -49 -87
-91 -107 -31 -14 -53 -17 -118 -12 -97 8 -92 -3 29 -56 44 -19 133 -58 198
-87 65 -29 121 -49 125 -45 4 3 -13 22 -36 42 -47 39 -83 100 -84 143 -1 16 5
49 12 75 15 53 5 54 160 -12 218 -93 200 -83 194 -112 -12 -51 -91 -207 -124
-244 -51 -58 -96 -77 -185 -77 -41 0 -75 -4 -75 -8 0 -9 195 -98 225 -104 15
-2 50 68 191 387 96 214 174 396 174 405 -1 8 -9 -1 -19 -20 -31 -58 -54 -73
-103 -67 -26 2 -166 60 -362 148 -362 163 -366 167 -347 244 7 26 10 49 8 51
-1 2 -36 -70 -76 -159z"/>
<path d="M2482 4235 c-61 -23 -142 -72 -349 -212 -116 -78 -192 -123 -208
-123 -34 0 -82 25 -95 50 -6 11 -15 20 -21 20 -13 0 1 -26 84 -150 75 -112 98
-143 104 -136 3 2 -3 18 -11 35 -9 16 -16 47 -16 67 0 52 47 95 266 239 202
133 243 154 318 162 70 7 115 -9 175 -63 65 -58 101 -131 101 -202 0 -96 -23
-117 -355 -339 -194 -129 -235 -153 -261 -153 -10 0 -38 21 -62 48 -25 26 -42
39 -39 29 4 -9 70 -112 148 -228 132 -196 174 -247 135 -165 -22 46 -20 92 4
116 11 11 73 55 138 96 189 124 341 235 383 282 74 84 75 191 3 341 -101 214
-295 339 -442 286z"/>
<path d="M11280 3982 c-150 -214 -181 -268 -113 -194 48 51 82 55 139 16 67
-45 192 -133 402 -282 230 -163 218 -141 130 -244 -31 -36 -62 -61 -85 -69
-36 -11 -141 -8 -175 6 -12 5 -18 3 -18 -6 1 -12 56 -54 160 -122 l28 -18 229
323 c264 371 303 428 303 444 0 18 -174 144 -184 134 -5 -5 2 -22 17 -40 47
-55 59 -135 32 -210 -20 -58 -76 -131 -95 -127 -17 4 -528 359 -598 415 -61
49 -69 74 -37 128 14 23 25 45 25 48 0 22 -32 -18 -160 -202z"/>
<path d="M3609 2592 c-105 -67 -125 -189 -47 -278 76 -86 181 -95 264 -21 74
64 88 153 37 235 -57 93 -165 120 -254 64z"/>
<path d="M10405 2576 c-90 -28 -135 -87 -135 -175 0 -103 68 -177 171 -187 44
-5 62 -1 99 18 143 77 130 279 -22 343 -44 18 -59 18 -113 1z"/>
<path d="M8350 2106 c0 -41 -21 -49 -107 -40 -97 10 -137 7 -188 -15 -62 -27
-101 -66 -134 -133 -52 -103 -35 -206 49 -302 51 -58 90 -74 358 -153 76 -23
128 -64 143 -112 25 -85 -19 -159 -110 -181 -106 -25 -204 16 -287 123 -30 38
-54 75 -54 83 0 8 -7 14 -15 14 -8 0 -15 -2 -15 -4 0 -5 70 -297 76 -318 8
-28 29 -21 45 15 l14 32 135 0 c131 0 137 1 189 30 98 54 153 145 154 255 1
80 -24 141 -79 194 -52 51 -108 78 -239 116 -169 49 -211 67 -246 107 -27 32
-31 41 -26 80 19 173 288 156 387 -24 13 -24 30 -43 37 -43 20 0 23 -10 -53
248 -16 54 -34 69 -34 28z"/>
<path d="M5652 2099 c2 -7 17 -16 32 -20 76 -21 75 -37 -9 -484 -35 -188 -36
-278 -2 -347 54 -110 161 -163 327 -163 88 0 99 2 150 31 103 58 142 152 200
486 45 261 50 279 76 305 17 17 34 23 64 23 34 0 41 3 38 18 -3 18 -72 34
-215 47 -76 8 -100 -4 -42 -21 18 -5 41 -22 52 -37 21 -27 21 -29 4 -140 -64
-439 -106 -572 -196 -625 -86 -51 -200 -32 -255 41 -28 38 -34 151 -12 249 8
40 32 168 52 283 20 116 40 220 45 233 11 27 53 45 90 37 25 -6 49 9 35 22 -3
3 -81 18 -173 33 -255 42 -266 44 -261 29z"/>
<path d="M7391 1961 c-75 -7 -91 -26 -31 -36 51 -9 77 -45 84 -119 13 -123 17
-406 7 -406 -6 0 -47 46 -91 103 -45 56 -140 177 -213 269 l-132 168 -142 0
c-78 0 -148 -3 -157 -6 -26 -10 -18 -23 18 -29 20 -4 47 -21 68 -43 l35 -37
11 -355 c12 -417 12 -417 -60 -440 -55 -17 -68 -47 -17 -36 17 3 85 6 150 6
93 0 119 3 119 13 0 8 -19 17 -47 23 -79 15 -82 27 -95 383 -7 165 -9 304 -5
308 12 11 47 -30 332 -387 147 -184 275 -337 283 -339 13 -3 14 20 9 190 -4
107 -10 303 -14 436 -7 272 -5 281 62 303 64 21 37 41 -53 38 -31 -1 -86 -4
-121 -7z"/>
</g>
</svg>
